<svg xmlns="http://www.w3.org/2000/svg" viewBox="0 0 56 56">
  <defs>
    <style>
      .a {
        fill: #191e23;
      }

      .b {
        fill: #fff;
      }
    </style>
  </defs>
  <g>
    <circle class="a" cx="28" cy="28" r="28"/>
    <g>
      <path class="b" d="M33.6,9.277a8.233,8.233,0,0,0-5.327,2.882,7.142,7.142,0,0,0-1.743,5.553A6.942,6.942,0,0,0,31.9,14.966,7.715,7.715,0,0,0,33.6,9.277Z"/>
      <path class="b" d="M40.985,21.037a8.867,8.867,0,0,0-6.7-3.556c-3.145,0-4.475,1.5-6.659,1.5-2.252,0-3.967-1.5-6.683-1.5a9.1,9.1,0,0,0-7.317,4.433c-2.536,3.932-2.1,11.322,2.007,17.617,1.47,2.252,3.432,4.786,6,4.807,2.284.021,2.928-1.466,6.025-1.482s3.684,1.5,5.964,1.477c2.566-.019,4.641-2.826,6.111-5.08A25.093,25.093,0,0,0,42,35a7.73,7.73,0,0,1-1.015-13.963Z"/>
    </g>
  </g>
</svg>
