<svg xmlns="http://www.w3.org/2000/svg" viewBox="0 0 56 56">
  <defs>
    <style>
      .a {
        fill: #f90;
      }

      .b, .c {
        fill-rule: evenodd;
      }

      .c {
        fill: #fff;
      }
    </style>
  </defs>
  <g>
    <circle cx="28" cy="28" r="28"/>
    <path class="a" d="M42.079,40.434C26.2,47.992,16.345,41.669,10.036,37.828c-.39-.233-1.053.056-.467.719a25.257,25.257,0,0,0,17.967,8.689A20.934,20.934,0,0,0,42.555,41.47c.665-.847.194-1.316-.466-1.036Zm4.462-2.464c-.427-.555-2.595-.658-3.967-.49s-3.416,1-3.236,1.5c.091.189.277.1,1.215.019s3.575-.425,4.126.292-.843,4.167-1.1,4.722.1.7.555.327a7.146,7.146,0,0,0,1.834-2.681,6.269,6.269,0,0,0,.558-3.687Z"/>
    <path class="b" d="M31.4,25.013a9.934,9.934,0,0,1-.952,5.4,4.123,4.123,0,0,1-3.521,2.313c-1.955,0-3.094-1.489-3.094-3.687,0-4.338,3.887-5.133,7.567-5.133ZM36.535,37.42a1.059,1.059,0,0,1-1.2.121,12.5,12.5,0,0,1-2.922-3.393,10.072,10.072,0,0,1-8.4,3.7A7.233,7.233,0,0,1,16.4,29.916,8.648,8.648,0,0,1,21.821,21.6a35.23,35.23,0,0,1,9.567-1.768v-.658a6.535,6.535,0,0,0-.616-3.687,3.4,3.4,0,0,0-2.856-1.325,3.88,3.88,0,0,0-4.095,3.056,1.066,1.066,0,0,1-.88.934L18,17.619a.9.9,0,0,1-.767-1.017c0-.017,0-.033.008-.049,1.139-5.985,6.534-7.789,11.382-7.789A11.547,11.547,0,0,1,36.293,11.3c2.475,2.312,2.24,5.4,2.24,8.755v7.933A6.955,6.955,0,0,0,40.451,32.7a.957.957,0,0,1-.014,1.353h0c-1.039.866-2.884,2.478-3.9,3.379l-.014-.014"/>
    <path class="a" d="M42.079,40.434C26.2,47.992,16.345,41.669,10.036,37.828c-.39-.233-1.053.056-.467.719a25.257,25.257,0,0,0,17.967,8.689A20.934,20.934,0,0,0,42.555,41.47c.665-.847.194-1.316-.466-1.036Zm4.462-2.464c-.427-.555-2.595-.658-3.967-.49s-3.416,1-3.236,1.5c.091.189.277.1,1.215.019s3.575-.425,4.126.292-.843,4.167-1.1,4.722.1.7.555.327a7.146,7.146,0,0,0,1.834-2.681,6.269,6.269,0,0,0,.558-3.687Z"/>
    <path class="c" d="M31.4,25.013a9.934,9.934,0,0,1-.952,5.4,4.123,4.123,0,0,1-3.521,2.313c-1.955,0-3.094-1.489-3.094-3.687,0-4.338,3.887-5.133,7.567-5.133ZM36.535,37.42a1.059,1.059,0,0,1-1.2.121,12.5,12.5,0,0,1-2.922-3.393,10.072,10.072,0,0,1-8.4,3.7A7.233,7.233,0,0,1,16.4,29.916,8.648,8.648,0,0,1,21.821,21.6a35.23,35.23,0,0,1,9.567-1.768v-.658a6.535,6.535,0,0,0-.616-3.687,3.4,3.4,0,0,0-2.856-1.325,3.88,3.88,0,0,0-4.095,3.056,1.066,1.066,0,0,1-.88.934L18,17.619a.9.9,0,0,1-.767-1.017c0-.017,0-.033.008-.049,1.139-5.985,6.534-7.789,11.382-7.789A11.547,11.547,0,0,1,36.293,11.3c2.475,2.312,2.24,5.4,2.24,8.755v7.933A6.955,6.955,0,0,0,40.451,32.7a.957.957,0,0,1-.014,1.353h0c-1.039.866-2.884,2.478-3.9,3.379l-.014-.014"/>
  </g>
</svg>
