<svg xmlns="http://www.w3.org/2000/svg" viewBox="0 0 56 56">
  <defs>
    <style>
      .a {
        fill: #1000b6;
      }

      .b {
        fill: #fff;
      }
    </style>
  </defs>
  <g>
    <circle class="a" cx="28" cy="28" r="28"/>
    <path class="b" d="M45,26.742a25.593,25.593,0,0,1-2.872.283l-.257.823a11.99,11.99,0,0,1,1.788-.014s.233-.021.268.271a4.56,4.56,0,0,1-.019.607.3.3,0,0,1-.27.233c-.29.047-2.245.135-2.245.135l-.317,1.064s-.115.234.149.175a18.547,18.547,0,0,1,2.567-.4.737.737,0,0,1,.511.809,5.043,5.043,0,0,1-3.4,1.634s-.653.039-1.2-.843c-.527-.842.182-2.429.182-2.429s-.317-.739-.082-1.01a1.035,1.035,0,0,1,.539-.149l.507-1.036a1.18,1.18,0,0,1-.91-.385c-.311-.406-.339-.581-.1-.7a16.645,16.645,0,0,1,4.263-.507s.572-.067,1.078.934c0,0,.233.406-.175.5m-6.155,3.992a1.082,1.082,0,0,1-1.345.732c-.031-.009-.062-.02-.093-.032-.7-.322-1.773-2.534-1.773-2.534s-.4-.823-.485-.795c0,0-.087-.164-.136.742s.014,2.641-.357,2.919a.654.654,0,0,1-.919-.092.52.52,0,0,1-.051-.072,4.883,4.883,0,0,1-.161-2.405,7.412,7.412,0,0,1,.809-3.183.516.516,0,0,1,.85,0,9.932,9.932,0,0,1,1.4,1.867l.147.256a11.571,11.571,0,0,0,.877,1.323s.068.068.121.012c.082-.019.054-.45.054-.45a22.928,22.928,0,0,0-.889-3.864,1.191,1.191,0,0,1-.035-.607c.068-.271.357-.135.357-.135a3.769,3.769,0,0,1,1.666,2.361,6.691,6.691,0,0,1-.028,3.967m-5.493-4.667c-.109.189-.156.453-.62.527A26.781,26.781,0,0,0,28,27.221s-.147.189.1.233,1.281.189,1.766.217c.525,0,2.291.014,2.94.81a1.753,1.753,0,0,1,.357,1.232c-.014.877-.168,1.187-.513,1.5a4.519,4.519,0,0,1-5.393-.432,1.117,1.117,0,0,1,.315-1.78s.878-.539,3.122.086c0,0,.675.233.649.492s-.56.542-1.316.528a2.605,2.605,0,0,1-1.167-.311c.1.033-.788-.431-1.064-.114s-.2.467.068.653a4.857,4.857,0,0,0,4.111-.634s.318-.357-.161-.647a7.616,7.616,0,0,0-2.38-.466c-.506-.028-2.4,0-2.683-.493,0,0-.271-.352.026-1.309.31-1.01,2.515-1.4,3.472-1.484,0,0,2.629-.107,3.122.432a.357.357,0,0,1,0,.3M25.9,31.976a1.018,1.018,0,0,1-1.188-.135,6.36,6.36,0,0,1-.233-2.63,10.039,10.039,0,0,1,.4-3.626c.338-.289.539-.035.674.161a1.558,1.558,0,0,1,.338.891c.04.467.154,2.9.154,2.9s.15,2.212-.154,2.441m.668-7.889a2.712,2.712,0,0,1-2.1-.019c-.234.425-.378.553-.553.579-.269.028-.5-.4-.539-.539a.7.7,0,0,1-.026-.7,1.568,1.568,0,0,1-.467-1.528,3.979,3.979,0,0,1,3.71-2.6s1.321-.094,1.55.606h.039s1.281,0,1.256,1.146S28.016,23.6,26.574,24.1m1.2-3.283a5.6,5.6,0,0,0-2.784,2.2,3.032,3.032,0,0,0,3.4-1.416s.357-.957-.62-.789m-3.734.742c-.268.439-.282.7-.154.875a6.652,6.652,0,0,1,1.72-1.792,1.992,1.992,0,0,0-1.566.917M47.012,31.925a20.157,20.157,0,0,0-1.442,5.408s-.065.451-.436.3a2.142,2.142,0,0,1-1.113-1.6A11.131,11.131,0,0,1,45.4,30.861a2.984,2.984,0,0,1-.336-2.159,6.431,6.431,0,0,1,2.1-3.465s.217-.182.338-.121.087.646-.035.933-.917,1.687-.917,1.687a3.219,3.219,0,0,0-.364,1.706c.959-1.47,3.136-4.45,4.485-3.5.856.607.856,2.567.215,3.7-.5.9-1.935,2.751-3.843,2.319m2.8-4.585a13.1,13.1,0,0,0-2.089,2.952,3.412,3.412,0,0,0,1.685-.7,2.824,2.824,0,0,0,1.052-2.3s-.081-.595-.648.053m-30.2,5.367a11.03,11.03,0,0,1-5.866.068c-.035.5-.089.7-.17.788s-.875.553-1.307-.081a3.65,3.65,0,0,1-.338-1.349A10.258,10.258,0,0,1,7.875,29a1.117,1.117,0,0,1-.068-1.53,8.4,8.4,0,0,1,4.27-1.753,11.553,11.553,0,0,1,.437-3.136c.249-.606.567-.067.849.339a7.193,7.193,0,0,1,.385,2.643,11.167,11.167,0,0,1,3.082.269c1.657.282,2.763,1.134,2.677,2.1a1.538,1.538,0,0,1-1.281,1.36,2.355,2.355,0,0,1-.878-.233c-.378-.175-.032-.336.4-.525.488-.234.378-.467.378-.467-.175-.541-2.333-.9-4.464-.9,0,1.18.049,3.136.082,4.274a12.08,12.08,0,0,0,2.616.222s5.462-.154,5.616-3.64-5.46-6.837-9.606-7.889a11.606,11.606,0,0,0-6.69-.215c-.222.108-.019.15-.019.15a3.988,3.988,0,0,1,.626.168c.406.135.081.336.081.336-.7.233-1.495.1-1.652-.222s.1-.607.4-1.031a.844.844,0,0,1,.609-.425c5.133-1.787,11.38,1.416,11.38,1.416,5.852,2.952,6.85,6.424,6.741,7.773a5.028,5.028,0,0,1-4.2,4.666M8.393,27.921a.409.409,0,0,0-.295.5.417.417,0,0,0,.12.2A9.351,9.351,0,0,0,11.9,30.977c.149-2.023.135-2.744.135-3.763a11.411,11.411,0,0,0-3.668.7"/>
  </g>
</svg>
