<svg xmlns="http://www.w3.org/2000/svg" viewBox="0 0 56 56">
  <defs>
    <style>
      .a {
        fill: #f0f0f0;
      }

      .b {
        fill: #4285f4;
      }

      .c {
        fill: #34a853;
      }

      .d {
        fill: #fbbc04;
      }

      .e {
        fill: #ea4335;
      }
    </style>
  </defs>
  <g>
    <circle class="a" cx="28" cy="28" r="28"/>
    <g>
      <path class="b" d="M45.817,28.411a20.746,20.746,0,0,0-.312-3.622H28.359v6.863h9.819a8.246,8.246,0,0,1-3.633,5.413v4.452H40.4A17.231,17.231,0,0,0,45.817,28.411Z"/>
      <path class="c" d="M28.359,45.817a17.612,17.612,0,0,0,12.05-4.3L34.55,37.065a11.031,11.031,0,0,1-6.184,1.7,10.86,10.86,0,0,1-10.206-7.35H12.115V36A18.221,18.221,0,0,0,28.359,45.817Z"/>
      <path class="d" d="M18.153,31.416a10.494,10.494,0,0,1,0-6.823V20H12.115a17.509,17.509,0,0,0,0,16Z"/>
      <path class="e" d="M28.359,17.234a9.982,9.982,0,0,1,6.972,2.672l5.19-5.087a17.663,17.663,0,0,0-12.162-4.636A18.217,18.217,0,0,0,12.115,20l6.038,4.589A10.851,10.851,0,0,1,28.359,17.234Z"/>
    </g>
  </g>
</svg>
