<svg xmlns="http://www.w3.org/2000/svg" viewBox="0 0 56 56">
  <defs>
    <style>
      .a {
        fill: #f40009;
      }

      .b {
        fill: #fff;
      }
    </style>
  </defs>
  <g>
    <circle class="a" cx="28" cy="28" r="28"/>
    <path class="b" d="M43.659,33.39l-.145.128c-.205.185-.417.381-.672.283a.254.254,0,0,1-.13-.194,3.314,3.314,0,0,1,.452-1.484L43.225,32a11.889,11.889,0,0,1,2.55-3.3.643.643,0,0,1,.614-.161.317.317,0,0,1,.11.21.327.327,0,0,1-.038.114c-.315.509-.613,1.041-.905,1.554a21.5,21.5,0,0,1-1.9,2.975ZM37.567,30.8a1.265,1.265,0,0,1-.952-.933,1.279,1.279,0,0,1,.7-1.319.7.7,0,0,1,.625-.116.627.627,0,0,1,.233.564,3.431,3.431,0,0,1-.035.418v.03a5.784,5.784,0,0,1-.56,1.354ZM34.65,33.661a.684.684,0,0,1-.1-.378,6.981,6.981,0,0,1,1.521-3.155h0A2.474,2.474,0,0,0,37.3,31.246c-.453,1.008-2.005,3.166-2.653,2.415Zm10.981.147c-.152.1-.362.023-.283-.21a12.27,12.27,0,0,1,.98-1.816l2.182-3.871h-1.5c-.07.117-.221.385-.221.385a2.173,2.173,0,0,0-.362-.427,1.316,1.316,0,0,0-1.269.089,12.617,12.617,0,0,0-3.7,4.242s-.973,1.61-1.515,1.729c-.422.035-.378-.534-.359-.667a10.889,10.889,0,0,1,.933-2.688,20.821,20.821,0,0,0,2.467-2.016,24.6,24.6,0,0,0,3.434-3.983,3.621,3.621,0,0,1-.508.056,24.286,24.286,0,0,1-4.938,5,32.335,32.335,0,0,1,4.786-7.154l.32-.308a3.88,3.88,0,0,1,1.4-1.059c.042,0,.095,0,.142.1a1.842,1.842,0,0,1-.282.971l-.234.466a4.832,4.832,0,0,0,.528-.128,2.479,2.479,0,0,0,.413-1.58.469.469,0,0,0-.362-.378,2.686,2.686,0,0,0-1.8.7h-.021a25.716,25.716,0,0,0-7.051,9.432,1.465,1.465,0,0,1-.807.179,6.93,6.93,0,0,0,.576-1.558,4.449,4.449,0,0,0,.042-.516,1.085,1.085,0,0,0-.418-.952,1.438,1.438,0,0,0-1.185.042,8.148,8.148,0,0,0-3.3,3.29,7.226,7.226,0,0,0-.949,2.55c-.082.742.084,1.221.506,1.459a1.4,1.4,0,0,0,1.2-.119,9.139,9.139,0,0,0,3.285-3.717,5.055,5.055,0,0,0,.8-.1h.011c-.018.063-.189.576-.189.576-.511,1.494-.746,2.509-.263,3.111.686.849,1.824-.028,2.751-1.19-.2,1.4.522,1.61,1.073,1.5a4.37,4.37,0,0,0,1.682-1.18c-.105.406-.077,1.131.5,1.2a1.53,1.53,0,0,0,1.029-.325,11.774,11.774,0,0,0,3.068-3.528h-.5a7.619,7.619,0,0,1-2.1,2.4ZM26.787,25.52h1.4l.788-1.284h-1.4Zm22.362-3.409a5.708,5.708,0,0,1-3.514.863c-.371.418-.732.849-1.066,1.293a5.834,5.834,0,0,0,4.986-1.6,7.824,7.824,0,0,0,1.778-2.306A9.329,9.329,0,0,1,49.149,22.111Zm-11.771-.325a5.227,5.227,0,0,1-2.7,4.172c-.3.059-.807-.072-.352-1.143a7.121,7.121,0,0,1,3.033-3.3.623.623,0,0,1,.021.268Zm-3.867,6.436a.866.866,0,0,0-.84-.483,3.825,3.825,0,0,0-2.909,2.445,7.011,7.011,0,0,0-.6,2.224,6.124,6.124,0,0,1,1.944-1.48,4.039,4.039,0,0,1,.7-1.687c.233-.329.662-.858,1.166-.718.432.147.28,1.346-.3,2.506a8.04,8.04,0,0,1-1.738,2.3c-.584.5-1.447,1.092-2.2.632a1.66,1.66,0,0,1-.667-1.633,13.377,13.377,0,0,1,2.613-6.085,15.672,15.672,0,0,1,5.185-5.008,1.459,1.459,0,0,1,1.2-.137,7.838,7.838,0,0,0-2.982,3.171,2.05,2.05,0,0,0-.233,1.848.722.722,0,0,0,.753.333,4.62,4.62,0,0,0,2.567-2.382,5.534,5.534,0,0,0,.681-2.368,2.86,2.86,0,0,0-.014-.343c.565-.3,1.72.233,1.72.233.9.3,2.826,1.771,3.474,2.053.315-.366.836-.921,1.13-1.2l-.425-.261c-.679-.413-1.4-.8-2.1-1.2a4.2,4.2,0,0,0-3.57-.329l-.5.175a1.93,1.93,0,0,0-1.9-.341A12.989,12.989,0,0,0,29.4,25.2a17.2,17.2,0,0,0-3.057,5.532,4,4,0,0,0,.453,3.911,2.351,2.351,0,0,0,2.7.366,8.553,8.553,0,0,0,3.946-4.666,3.147,3.147,0,0,0,.072-2.131ZM14.87,26.241l-.284.655c-.042.035-.108.019-.18,0l-.128-.021a1.135,1.135,0,0,1-.791-.7,1.376,1.376,0,0,1,.627-1.271.7.7,0,0,1,.768-.077.8.8,0,0,1,.17.539,2.877,2.877,0,0,1-.182.879Zm-.606,1.232-.031.06-.641,1.046a4.918,4.918,0,0,1-1.475,1.479c-.18.058-.427.1-.553-.061-.266-.319-.128-.763-.016-1.122l.039-.128A10.56,10.56,0,0,1,12.913,26.4h.025v.014a2.137,2.137,0,0,0,1.333,1v.012a.207.207,0,0,1-.024.067Zm8.019-.686a20.785,20.785,0,0,1,1.326-1.634c.686-.6.959-.336.982-.149-.639,1.143-1.4,2.455-2.1,3.633l-.233.338a3.271,3.271,0,0,1-1.141,1.167.334.334,0,0,1-.276-.03.289.289,0,0,1-.123-.283A7.589,7.589,0,0,1,22.274,26.8Zm-7.116-2.6c-.885-.579-2.665.529-4.088,2.433-1.305,1.708-1.867,3.694-1.253,4.611.91,1.08,2.6-.49,3.32-1.332l.091-.1a10.448,10.448,0,0,0,1.232-1.762l.352-.581a7.563,7.563,0,0,0,.74-.18A6.657,6.657,0,0,0,14.593,30a1.565,1.565,0,0,0,.984,1.575c1.3.217,2.334-.791,3.253-1.687l.245-.233-.051.208c-.381,1.323.13,1.6.452,1.7.971.282,2.128-1.127,2.133-1.127-.03.443-.119.812.35,1.106a1.418,1.418,0,0,0,1.227-.31,13.156,13.156,0,0,0,3.006-3.379h-.509a9.142,9.142,0,0,1-2.063,2.2s-.147.077-.233.017-.063-.276,0-.409l3.127-5.425H25.039s-.161.262-.175.278a.743.743,0,0,1-.049-.075c-.915-1.262-2.982.682-4.541,2.936a14.875,14.875,0,0,1-2.153,2.545s-1.167,1.076-1.676.3a1.5,1.5,0,0,1-.023-1.111,9.2,9.2,0,0,1,2.735-4.076.857.857,0,0,1,.847-.22.371.371,0,0,1,.088.509.814.814,0,0,0-.653.252,1.012,1.012,0,0,0-.352,1.029c.527.751,1.579-.735,1.528-1.633a.969.969,0,0,0-.448-.78,1.548,1.548,0,0,0-1.353.012,6.019,6.019,0,0,0-1.785,1.384c-.593.653-1.608,1.379-1.925,1.3.105-.278.961-2.032.06-2.69Zm7.41,9.5c-1.736-1.118-4.092-1.314-7.893-.259-4.051.952-5.4,1.561-7.178.336A3.163,3.163,0,0,1,6.767,30.8a14.993,14.993,0,0,1,3.6-6.895,8.582,8.582,0,0,1,3.574-2.784c1.064-.273.964.563.836.684a1.047,1.047,0,0,0-.542.135,1.4,1.4,0,0,0-.555.952c-.03.74.733.586,1.062.18a2.1,2.1,0,0,0,.466-2.147,1.217,1.217,0,0,0-.844-.56,6.3,6.3,0,0,0-3.549,1.2,15.537,15.537,0,0,0-5.386,6.48,7.023,7.023,0,0,0-.34,5.469A3.581,3.581,0,0,0,8.72,35.264a28.663,28.663,0,0,0,3.434-.7c.934-.222,5.656-1.848,7.21.982a2.1,2.1,0,0,1,1.809-1.027,5.963,5.963,0,0,1,3.71,1.127,9.5,9.5,0,0,0-2.306-1.95Z"/>
  </g>
</svg>
