<svg xmlns="http://www.w3.org/2000/svg" xmlns:xlink="http://www.w3.org/1999/xlink" viewBox="0 0 56 56">
  <defs>
    <style>
      .a {
        fill: #f0f0f0;
      }

      .b {
        fill: url(#a);
      }
    </style>
    <linearGradient id="a" x1="8.167" y1="29.999" x2="47.831" y2="29.999" gradientTransform="matrix(1, 0, 0, -1, 0, 58)" gradientUnits="userSpaceOnUse">
      <stop offset="0.134" stop-color="#0869e1"/>
      <stop offset="0.873" stop-color="#0064e0"/>
    </linearGradient>
  </defs>
  <circle class="a" cx="28" cy="28" r="28"/>
  <path class="b" d="M36.636,14.821c-3.253,0-5.8,2.45-8.1,5.563-3.164-4.027-5.808-5.563-8.974-5.563-6.454,0-11.4,8.4-11.4,17.288,0,5.563,2.69,9.072,7.2,9.072,3.243,0,5.577-1.531,9.725-8.78l2.919-5.157c.418.672.854,1.4,1.316,2.175l1.946,3.271c3.79,6.34,5.9,8.489,9.726,8.489,4.391,0,6.834-3.556,6.834-9.236C47.833,22.638,42.777,14.821,36.636,14.821ZM21.929,30.436c-3.363,5.271-4.527,6.454-6.4,6.454-1.928,0-3.073-1.692-3.073-4.709,0-6.454,3.217-13.052,7.053-13.052,2.077,0,3.813,1.2,6.473,5C23.457,28.007,21.929,30.436,21.929,30.436Zm12.693-.663L32.3,25.9c-.63-1.024-1.232-1.964-1.816-2.825,2.1-3.237,3.825-4.847,5.883-4.847,4.272,0,7.69,6.291,7.69,14.017,0,2.944-.963,4.655-2.963,4.655C39.174,36.89,38.257,35.625,34.622,29.773Z"/>
</svg>
