<svg xmlns="http://www.w3.org/2000/svg" viewBox="0 0 56 56">
  <defs>
    <style>
      .a {
        fill: #b1060f;
      }

      .a, .b {
        fill-rule: evenodd;
      }

      .b {
        fill: #e50914;
      }
    </style>
  </defs>
  <g>
    <circle cx="28" cy="28" r="28"/>
    <g>
      <path class="a" d="M31.015,8.965c0,4.2-.269,37.459-.262,37.464,1.972.1,4.991.31,6.956.569a4.263,4.263,0,0,0,.765.056c.047-1.615.017-31.267,0-38.089Z"/>
      <path class="a" d="M17.5,8.939c0,6.832,0,36.512.023,38.117.549-.039,3.16-.319,3.839-.375.823-.07,3.287-.234,3.572-.234a64.421,64.421,0,0,0,.1-8.066s.077-29.167-.021-29.444Z"/>
      <path class="b" d="M30.753,46.433c2.226.084,5.542.42,7.721.626,0,0-11.526-32.651-13.461-38.115H17.5S31.008,47.175,30.753,46.433Z"/>
    </g>
  </g>
</svg>
