<svg xmlns="http://www.w3.org/2000/svg" viewBox="0 0 56 56">
  <defs>
    <style>
      .a {
        fill: #77b900;
      }
    </style>
  </defs>
  <g>
    <circle cx="28" cy="28" r="28"/>
    <path class="a" d="M13.029,26.283a14.108,14.108,0,0,1,10.115-5.5V18.982c-7.466.6-13.93,6.92-13.93,6.92s3.661,10.584,13.93,11.555v-1.92C15.61,34.587,13.029,26.283,13.029,26.283Zm10.115,5.434v1.757a9.938,9.938,0,0,1-7.277-6.935,12.32,12.32,0,0,1,7.275-3.521V24.95h0A5.467,5.467,0,0,0,18.9,26.892a7.586,7.586,0,0,0,4.253,4.827m0-16.069v3.334c.22-.019.439-.033.658-.04,8.489-.287,14.019,6.961,14.019,6.961s-6.351,7.723-12.969,7.723a9.693,9.693,0,0,1-1.708-.152v2.063a11.685,11.685,0,0,0,1.424.091c6.155,0,10.609-3.145,14.933-6.867.714.574,3.64,1.967,4.242,2.567-4.1,3.432-13.652,6.2-19.07,6.2-.523,0-1.025-.032-1.517-.079v2.9h23.4v-24.7Zm0,7.371V20.79c.217-.016.436-.027.658-.035A13.418,13.418,0,0,1,33.917,26s-4.323,6.006-8.962,6.006a5.642,5.642,0,0,1-1.8-.287V24.953c2.376.287,2.854,1.334,4.282,3.717l3.178-2.679a8.4,8.4,0,0,0-6.228-3.033,11.535,11.535,0,0,0-1.232.072"/>
  </g>
</svg>
