<svg xmlns="http://www.w3.org/2000/svg" viewBox="0 0 56 56">
  <defs>
    <style>
      .a {
        fill: #0069b5;
      }

      .b {
        fill: #add0e8;
      }

      .c {
        fill: #fff;
      }

      .d {
        fill: #e6f1f8;
        isolation: isolate;
        opacity: 0.7;
      }
    </style>
  </defs>
  <g>
    <circle class="a" cx="28" cy="28" r="28"/>
    <g>
      <path class="b" d="M39.746,19.5A6.864,6.864,0,0,0,38.29,13.33a10.664,10.664,0,0,0-8.19-2.6H19.367a1.538,1.538,0,0,0-1.517,1.3L13.372,40.367a.935.935,0,0,0,.791,1.057,1.191,1.191,0,0,0,.119.009h6.629l-.457,2.9a.809.809,0,0,0,.8.934h5.6a1.343,1.343,0,0,0,1.327-1.134l.054-.285,1.052-6.673.07-.369a1.344,1.344,0,0,1,1.326-1.136H31.5c5.413,0,9.651-2.2,10.89-8.559a7.281,7.281,0,0,0-1.12-6.435A5.3,5.3,0,0,0,39.741,19.5h0"/>
      <path class="c" d="M24.365,19.539a1.343,1.343,0,0,1,1.327-1.134h8.419a17.806,17.806,0,0,1,2.777.2c.233.04.466.084.7.135s.452.108.667.173c.107.03.215.063.32.1a7.366,7.366,0,0,1,1.166.492,6.861,6.861,0,0,0-1.456-6.174,10.668,10.668,0,0,0-8.185-2.6H19.367a1.538,1.538,0,0,0-1.517,1.3L13.372,40.367a.935.935,0,0,0,.791,1.057,1.191,1.191,0,0,0,.119.009h6.629l1.666-10.561Z"/>
      <path class="d" d="M38.584,19.012l-.317-.112c-.215-.063-.439-.119-.668-.17s-.466-.1-.7-.136a17.792,17.792,0,0,0-2.776-.2H25.692a1.343,1.343,0,0,0-1.327,1.134L22.577,30.87l-.053.331a1.533,1.533,0,0,1,1.512-1.3h3.152c6.188,0,11.032-2.513,12.448-9.784.042-.214.077-.424.11-.627A7.407,7.407,0,0,0,38.584,19.012Z"/>
    </g>
  </g>
</svg>
