<svg xmlns="http://www.w3.org/2000/svg" viewBox="0 0 56 56">
  <defs>
    <style>
      .a {
        fill: #e82127;
      }

      .b {
        fill: #fff;
      }
    </style>
  </defs>
  <g>
    <circle class="a" cx="28" cy="28" r="28"/>
    <g>
      <path class="b" d="M28,47.091l4.648-26.147c4.433,0,5.833.485,6.032,2.469a10.463,10.463,0,0,0,4.473-3.36,32.847,32.847,0,0,0-11.73-2.833L28,21.4h0l-3.43-4.177a32.834,32.834,0,0,0-11.737,2.831,10.451,10.451,0,0,0,4.471,3.36c.2-1.984,1.6-2.469,6-2.474L28,47.091"/>
      <path class="b" d="M28,16.014a38.288,38.288,0,0,1,15.685,3.145,12.555,12.555,0,0,0,.933-1.92A45.447,45.447,0,0,0,28,14a45.432,45.432,0,0,0-16.616,3.239,16.275,16.275,0,0,0,.934,1.92A38.284,38.284,0,0,1,28,16.014h0"/>
    </g>
  </g>
</svg>
