<svg xmlns="http://www.w3.org/2000/svg" xmlns:xlink="http://www.w3.org/1999/xlink" viewBox="0 0 56 56">
  <defs>
    <style>
      .a {
        fill: url(#a);
      }

      .b {
        fill: #fff;
      }
    </style>
    <linearGradient id="a" x1="11.362" y1="49.11" x2="69.091" y2="-17.195" gradientTransform="matrix(1, 0, 0, -1, 0, 58)" gradientUnits="userSpaceOnUse">
      <stop offset="0" stop-color="#1a1e21"/>
      <stop offset="1" stop-color="#06060a"/>
    </linearGradient>
  </defs>
  <path class="a" d="M0,28A28,28,0,1,1,28,56,28,28,0,0,1,0,28Z"/>
  <path class="b" d="M12,33.992a4.13,4.13,0,0,0,4-4.18V20h2V36H16V34.27A5.961,5.961,0,0,1,11.744,36,5.894,5.894,0,0,1,6,29.843V20H8v9.81A4.1,4.1,0,0,0,12,33.992ZM22,20v5.73a6.379,6.379,0,0,1,4.325-1.708,5.989,5.989,0,1,1,0,11.977A6.365,6.365,0,0,1,22,34.291V36H20V20Zm.523,11.572a3.947,3.947,0,1,0,7.255-3.111,3.931,3.931,0,0,0-3.61-2.416,3.973,3.973,0,0,0-3.634,2.416,4.045,4.045,0,0,0-.01,3.112Zm14.409-7.055a5.948,5.948,0,0,1,4.62-.023A5.868,5.868,0,0,1,44.983,30v1H35.676a3.861,3.861,0,0,0,1.29,2.066,3.791,3.791,0,0,0,2.5.933,3.923,3.923,0,0,0,3.3-1.685L44.4,33.527a6.244,6.244,0,0,1-9.251.741,6.029,6.029,0,0,1,1.783-9.75ZM35.72,29H42.7a3.591,3.591,0,0,0-3.477-2.978A3.64,3.64,0,0,0,35.72,29ZM48,29.212V36H46V24h2v1.685a3.72,3.72,0,0,1,2.979-1.506H52v2.112H50.822A3.012,3.012,0,0,0,48,29.212Z"/>
</svg>
