<svg xmlns="http://www.w3.org/2000/svg" viewBox="0 0 56 56">
  <defs>
    <style>
      .a {
        fill: #24377f;
      }

      .b {
        fill: #fff;
      }
    </style>
  </defs>
  <g>
    <circle class="a" cx="28" cy="28" r="28"/>
    <path class="b" d="M27.622,25.284c-.026,2.1,1.867,3.267,3.3,3.967,1.467.714,1.96,1.166,1.955,1.81,0,.978-1.167,1.4-2.256,1.428a7.9,7.9,0,0,1-3.874-.933l-.681,3.211a11.338,11.338,0,0,0,4.2.772c3.967,0,6.55-1.955,6.564-4.986.016-3.846-5.32-4.058-5.285-5.778.014-.522.511-1.078,1.6-1.22a7.117,7.117,0,0,1,3.72.651l.662-3.089A10.084,10.084,0,0,0,34,20.47c-3.733,0-6.349,1.981-6.37,4.816M43.9,20.736a1.717,1.717,0,0,0-1.6,1.069l-5.661,13.5H40.6l.789-2.177H46.2l.467,2.177h3.5L47.11,20.732H43.89m.555,3.936,1.141,5.474H42.467l1.985-5.474m-21.62-3.936-3.12,14.576h3.771L26.6,20.732H22.825m-5.579,0-3.925,9.921-1.589-8.437a1.754,1.754,0,0,0-1.738-1.484H3.577l-.089.422A15.649,15.649,0,0,1,7.208,22.4a1.6,1.6,0,0,1,.9,1.281l3.007,11.632H15.1l6.108-14.576H17.239"/>
  </g>
</svg>
